<svg id="Calque_1" data-name="Calque 1" xmlns="http://www.w3.org/2000/svg" viewBox="0 0 55.9 56"><defs><style>.cls-1{fill:#fff;}</style></defs><path class="cls-1" d="M29,22.34h1v-7a1,1,0,0,1,.17-.55l.52-.79C30,9.15,27.92,6.06,25.07,5.46,27.35,7.66,29,11.71,29,18.34Z" transform="translate(-5.02 -5.34)"/><path class="cls-1" d="M27,18.34c0-7.9-2.75-13-7-13a5.24,5.24,0,0,0-4,2h1a3,3,0,0,1,0,6H13.45c-.06.33-.12.66-.16,1H17a3,3,0,0,1,0,6H13v2H27Z" transform="translate(-5.02 -5.34)"/><rect class="cls-1" x="6" y="37" width="4" height="12"/><path class="cls-1" d="M37,40.34l-1.5-2h-7L24.8,43a1,1,0,0,1-.78.38H17v10h8a1.1,1.1,0,0,1,.71.29l2.7,2.71H42a1,1,0,1,0,0-2H36v-2h9a1,1,0,1,0,0-2H36v-2H48a1,1,0,1,0,0-2H36v-2H46a1,1,0,1,0,0-2H34v-2Z" transform="translate(-5.02 -5.34)"/><path class="cls-1" d="M17.71,18.05a1,1,0,0,0,.31-.71,1,1,0,0,0-1-1H13.09c0,.65-.07,1.31-.07,2h4A.91.91,0,0,0,17.71,18.05Z" transform="translate(-5.02 -5.34)"/><path class="cls-1" d="M58,53.24l2.9-28.9H11.12l1.6,16H16a1,1,0,0,1,1,1h6.52l3.7-4.62a1,1,0,0,1,.78-.38h8a1,1,0,0,1,.8.4l2.7,3.6H46a3,3,0,0,1,3,3,3.11,3.11,0,0,1-.22,1.13A3,3,0,0,1,48,50.34h-.18a3,3,0,0,1-1.78,3.82,2.65,2.65,0,0,1-1,.18h-.18a3,3,0,0,1-1.78,3.82,2.65,2.65,0,0,1-1,.18H28a1,1,0,0,1-.71-.29l-2.7-2.71H17a1,1,0,0,1-1,1H13.07l-1.66,5H60.63l-2.56-7.68A1.16,1.16,0,0,1,58,53.24Z" transform="translate(-5.02 -5.34)"/><polygon class="cls-1" points="35.47 9 52.13 9 49.46 5 32.14 5 35.47 9"/><rect class="cls-1" x="31" width="18" height="3"/><rect class="cls-1" y="38" width="4" height="10"/><rect class="cls-1" x="36" y="11" width="17" height="6"/><path class="cls-1" d="M17.71,11.05a1,1,0,0,0,.31-.71,1,1,0,0,0-1-1H14.7a13.47,13.47,0,0,0-.76,2H17A.91.91,0,0,0,17.71,11.05Z" transform="translate(-5.02 -5.34)"/><polygon class="cls-1" points="29 11 31 11 31 17 34 17 34 10.36 31 6.76 31 9 29 9 29 7.3 27 10.3 27 17 29 17 29 11"/></svg>