<svg id="Calque_1" data-name="Calque 1" xmlns="http://www.w3.org/2000/svg" viewBox="0 0 47.82 54"><defs><style>.cls-1{fill:#fff;}</style></defs><polygon class="cls-1" points="30.03 42 31.91 42 31.91 35.72 30.77 35.34 30.03 42"/><path class="cls-1" d="M24,36a2,2,0,0,0,4,0V34H24Z" transform="translate(-8.09 -6)"/><path class="cls-1" d="M32,22A16,16,0,1,0,48,38,16,16,0,0,0,32,22ZM30,33v3a4,4,0,0,1-1.86,3.37L29,48.91A1,1,0,0,1,28.09,50H24a1,1,0,0,1-1-1v-.09l.86-9.54A4,4,0,0,1,22,36V28h2v4h1V28h2v4h1V28h2Zm12,5V49a1,1,0,0,1-1,1H37a1,1,0,0,1-1-1,.41.41,0,0,1,0-.11l.91-8.2-2.24-.75A1,1,0,0,1,34,39V35a7,7,0,0,1,7-7,1,1,0,0,1,1,1Z" transform="translate(-8.09 -6)"/><path class="cls-1" d="M26,40l-.18,0-.73,8h1.82l-.73-8Z" transform="translate(-8.09 -6)"/><path class="cls-1" d="M36,35v3.28l4,1.33V30.1A5,5,0,0,0,36,35Z" transform="translate(-8.09 -6)"/><path class="cls-1" d="M53,51.92,55.91,18H8.09L11,51.92a1.07,1.07,0,0,1-.05.4L8.39,60H55.61l-2.56-7.68A1.07,1.07,0,0,1,53,51.92ZM32,56A18,18,0,1,1,50,38,18,18,0,0,1,32,56Z" transform="translate(-8.09 -6)"/><polygon class="cls-1" points="12.91 4 34.91 4 34.91 10 38.91 10 38.91 4 34.91 0 12.91 0 8.91 4 8.91 10 12.91 10 12.91 4"/></svg>