<svg id="Calque_1" data-name="Calque 1" xmlns="http://www.w3.org/2000/svg" viewBox="0 0 517 170.9"><defs><style>.cls-1{fill:#2585bb;}.cls-2{fill:#fff;}</style></defs><path class="cls-1" d="M51.27,487.21V367.62h59.8q24.69,0,42.3,17.6T171,427.41q0,24.7-17.6,42.25t-42.3,17.55H85.52v51.31H51.27Zm59.8-34.14a25.66,25.66,0,0,0,0-51.31H85.52v51.31Z" transform="translate(-51.27 -367.62)"/><path class="cls-1" d="M324.75,477.87V404.78h29.33V538.52l-87.83-73.18v73.18H236.91V404.78Z" transform="translate(-51.27 -367.62)"/><path class="cls-1" d="M395,380.62,392,436.07H374.75l-2.86-55.45Z" transform="translate(-51.27 -367.62)"/><path class="cls-1" d="M557.13,367.62v34.14H488.85V436h51.21v34.14H488.85v68.38H454.61V367.62Z" transform="translate(-51.27 -367.62)"/><path class="cls-2" d="M62.42,487.21V367.62h59.79q24.71,0,42.3,17.6t17.6,42.19q0,24.7-17.6,42.25t-42.3,17.55H96.66v51.31H62.42Zm59.79-34.14a25.66,25.66,0,0,0,0-51.31H96.66v51.31Z" transform="translate(-51.27 -367.62)"/><path class="cls-2" d="M335.89,477.87V404.78h29.34V538.52l-87.84-73.18v73.18H248.06V404.78Z" transform="translate(-51.27 -367.62)"/><path class="cls-2" d="M406.1,380.62l-2.93,55.45H385.9L383,380.62Z" transform="translate(-51.27 -367.62)"/><path class="cls-2" d="M568.27,367.62v34.14H500V436h51.21v34.14H500v68.38H465.76V367.62Z" transform="translate(-51.27 -367.62)"/></svg>