<svg id="Calque_1" data-name="Calque 1" xmlns="http://www.w3.org/2000/svg" viewBox="0 0 329.29 161.75"><defs><style>.cls-1{fill:#2585bb;}.cls-2{fill:#e62453;}</style></defs><path class="cls-1" d="M131.71,372.53V327.71h22.41a22.41,22.41,0,0,1,0,44.82h-9.58v19.23H131.71Zm22.41-12.79a9.62,9.62,0,0,0,0-19.24h-9.58v19.24Z" transform="translate(-131.71 -327.71)"/><path class="cls-1" d="M198.31,382.62l-4.14,9.14H180.5l27.42-61.07,1.35-3,1.39,3,27.46,61H224.41l-4.09-9.18-.2-.43H198.5Zm16-13.27-5-11.2-5,11.2Z" transform="translate(-131.71 -327.71)"/><path class="cls-1" d="M247.84,372.53V327.71h22.41A22.39,22.39,0,0,1,288.63,363a22.12,22.12,0,0,1-10.39,8.09l14.46,20.7H277.05l-16.37-23.44v23.44H247.84Zm22.41-12.79a9.62,9.62,0,0,0,0-19.24h-9.57v19.24Z" transform="translate(-131.71 -327.71)"/><path class="cls-1" d="M327.39,327.71h16V340.5h-16v51.26H314.56V340.5h-16V327.71h28.85Z" transform="translate(-131.71 -327.71)"/><path class="cls-1" d="M363.71,327.71,374.76,348l11-20.3h14.59L381.15,363v28.73H368.36V363l-19.19-35.32Z" transform="translate(-131.71 -327.71)"/><path class="cls-1" d="M170.13,460.37v-35H183v64.05l-38.43-35v35H131.71V425.36Z" transform="translate(-131.71 -327.71)"/><path class="cls-1" d="M207.58,425.36,206,446.14h-9.61l-1.59-20.78Z" transform="translate(-131.71 -327.71)"/><path class="cls-1" d="M266.81,425.36v12.8H241.22V451h19.19v12.79H241.22v25.63H228.38V425.36Z" transform="translate(-131.71 -327.71)"/><path class="cls-1" d="M327.21,434.78a31.87,31.87,0,1,1-22.61-9.42A30.85,30.85,0,0,1,327.21,434.78Zm-36.18,9a19.1,19.1,0,1,0,13.57-5.66A18.57,18.57,0,0,0,291,443.82Z" transform="translate(-131.71 -327.71)"/><path class="cls-1" d="M395,434.78a31.87,31.87,0,1,1-22.61-9.42A30.82,30.82,0,0,1,395,434.78Zm-36.18,9A19.19,19.19,0,0,0,386,471a19.19,19.19,0,1,0-27.14-27.14Z" transform="translate(-131.71 -327.71)"/><path class="cls-1" d="M446,434.78a32,32,0,0,1-22.61,54.63H410.54V425.36h12.83A30.82,30.82,0,0,1,446,434.78ZM436.92,471a19.23,19.23,0,0,0-13.55-32.8v38.42A18.54,18.54,0,0,0,436.92,471Z" transform="translate(-131.71 -327.71)"/><path class="cls-2" d="M137.31,372.58V327.76h22.41a22.41,22.41,0,0,1,0,44.82h-9.58v19.23H137.31Zm22.41-12.79a9.62,9.62,0,0,0,0-19.24h-9.58v19.24Z" transform="translate(-131.71 -327.71)"/><path class="cls-2" d="M203.91,382.67l-4.14,9.14H186.1l27.42-61.07,1.35-3,1.39,3,27.46,61H230l-4.09-9.18-.2-.43H204.1Zm16-13.27-5-11.2-5,11.2Z" transform="translate(-131.71 -327.71)"/><path class="cls-2" d="M253.44,372.58V327.76h22.41A22.39,22.39,0,0,1,294.23,363a22.12,22.12,0,0,1-10.39,8.09l14.46,20.7H282.65l-16.37-23.44v23.44H253.44Zm22.41-12.79a9.62,9.62,0,0,0,0-19.24h-9.57v19.24Z" transform="translate(-131.71 -327.71)"/><path class="cls-2" d="M333,327.76h16v12.79H333v51.26H320.16V340.55h-16V327.76H333Z" transform="translate(-131.71 -327.71)"/><path class="cls-2" d="M369.31,327.76l11.05,20.3,11-20.3H406l-19.24,35.32v28.73H374V363.08l-19.19-35.32Z" transform="translate(-131.71 -327.71)"/><path class="cls-2" d="M175.73,460.42v-35h12.84v64l-38.43-35v35H137.31v-64Z" transform="translate(-131.71 -327.71)"/><path class="cls-2" d="M213.18,425.41l-1.63,20.78h-9.61l-1.59-20.78Z" transform="translate(-131.71 -327.71)"/><path class="cls-2" d="M272.41,425.41v12.8H246.82V451H266v12.79H246.82v25.63H234v-64Z" transform="translate(-131.71 -327.71)"/><path class="cls-2" d="M332.81,434.83a31.87,31.87,0,1,1-22.61-9.42A30.85,30.85,0,0,1,332.81,434.83Zm-36.18,9a19.1,19.1,0,1,0,13.57-5.66A18.57,18.57,0,0,0,296.63,443.87Z" transform="translate(-131.71 -327.71)"/><path class="cls-2" d="M400.59,434.83A31.86,31.86,0,1,1,378,425.41,30.82,30.82,0,0,1,400.59,434.83Zm-36.17,9A19.09,19.09,0,1,0,378,438.21,18.38,18.38,0,0,0,364.42,443.87Z" transform="translate(-131.71 -327.71)"/><path class="cls-2" d="M451.58,434.83A32,32,0,0,1,429,489.46H416.14v-64H429A30.82,30.82,0,0,1,451.58,434.83ZM442.52,471A19.23,19.23,0,0,0,429,438.21v38.42A18.52,18.52,0,0,0,442.52,471Z" transform="translate(-131.71 -327.71)"/></svg>