<svg id="Calque_1" data-name="Calque 1" xmlns="http://www.w3.org/2000/svg" viewBox="0 0 537 263.79"><defs><style>.cls-1{fill:#2585bb;}.cls-2{fill:#fff;}</style></defs><path class="cls-1" d="M50,313.36v-73.1H86.55A35.26,35.26,0,0,1,112.4,251a36.32,36.32,0,0,1,0,51.61,35.31,35.31,0,0,1-25.85,10.73H70.93v31.36H50Zm36.55-20.87a15.68,15.68,0,0,0,0-31.36H70.93v31.36Z" transform="translate(-50 -240.26)"/><path class="cls-1" d="M158.6,329.82l-6.74,14.9H129.57l44.71-99.6,2.21-4.86,2.27,4.93,44.77,99.53H201.18l-6.68-15-.32-.71H158.93Zm26.12-21.65-8.17-18.27-8.23,18.27Z" transform="translate(-50 -240.26)"/><path class="cls-1" d="M239.39,313.36v-73.1h36.54a36.5,36.5,0,0,1,30,57.51A36.11,36.11,0,0,1,289,311l23.59,33.76H287l-26.7-38.23v38.23H239.39Zm36.54-20.87a15.68,15.68,0,0,0,0-31.36H260.32v31.36Z" transform="translate(-50 -240.26)"/><path class="cls-1" d="M369.12,240.26h26.11v20.87H369.12v83.59H348.19V261.13H322.07V240.26h47.05Z" transform="translate(-50 -240.26)"/><path class="cls-1" d="M428.34,240.26l18,33.12,18-33.12h23.78l-31.36,57.61v46.85H435.92V297.87l-31.29-57.61Z" transform="translate(-50 -240.26)"/><path class="cls-1" d="M112.66,456.6V399.51h20.93V504L70.93,446.82V504H50V399.51Z" transform="translate(-50 -240.26)"/><path class="cls-1" d="M173.73,399.51l-2.66,33.89H155.39l-2.59-33.89Z" transform="translate(-50 -240.26)"/><path class="cls-1" d="M270.32,399.51v20.87H228.59v20.93h31.29v20.86H228.59V504H207.66V399.51Z" transform="translate(-50 -240.26)"/><path class="cls-1" d="M368.81,414.87A52.16,52.16,0,1,1,295,488.64a52.16,52.16,0,1,1,73.77-73.77Zm-59,14.74a31.14,31.14,0,1,0,22.13-9.23A30.31,30.31,0,0,0,309.81,429.61Z" transform="translate(-50 -240.26)"/><path class="cls-1" d="M479.36,414.87a52,52,0,1,1-36.87-15.36A50.27,50.27,0,0,1,479.36,414.87Zm-59,14.74a31.14,31.14,0,1,0,22.13-9.23A30.31,30.31,0,0,0,420.36,429.61Z" transform="translate(-50 -240.26)"/><path class="cls-1" d="M562.51,414.87A52.22,52.22,0,0,1,525.64,504H504.71V399.51h20.93A50.28,50.28,0,0,1,562.51,414.87Zm-14.77,59a31.36,31.36,0,0,0-22.1-53.49V483A30.21,30.21,0,0,0,547.74,473.87Z" transform="translate(-50 -240.26)"/><path class="cls-2" d="M59.13,313.44V240.35H95.68a36.72,36.72,0,0,1,36.61,36.54,35.09,35.09,0,0,1-10.76,25.82,35.31,35.31,0,0,1-25.85,10.73H80.06V344.8H59.13Zm36.55-20.87a15.68,15.68,0,0,0,0-31.36H80.06v31.36Z" transform="translate(-50 -240.26)"/><path class="cls-2" d="M167.74,329.9,161,344.8H138.71l44.71-99.59,2.2-4.86,2.27,4.92,44.77,99.53H210.31l-6.68-15-.32-.71H168.06Zm26.11-21.65L185.69,290l-8.23,18.27Z" transform="translate(-50 -240.26)"/><path class="cls-2" d="M248.52,313.44V240.35h36.55a36.51,36.51,0,0,1,30,57.51,36.22,36.22,0,0,1-17,13.18l23.59,33.76H296.15l-26.7-38.23V344.8H248.52Zm36.55-20.87a15.68,15.68,0,0,0,0-31.36H269.45v31.36Z" transform="translate(-50 -240.26)"/><path class="cls-2" d="M378.25,240.35h26.11v20.86H378.25V344.8H357.32V261.21H331.2V240.35h47.05Z" transform="translate(-50 -240.26)"/><path class="cls-2" d="M437.47,240.35l18,33.11,18-33.11h23.78L465.92,298V344.8H445.06V298l-31.3-57.6Z" transform="translate(-50 -240.26)"/><path class="cls-2" d="M121.79,456.68V399.59h20.93V504.05L80.06,446.9v57.15H59.13V399.59Z" transform="translate(-50 -240.26)"/><path class="cls-2" d="M182.86,399.59l-2.65,33.89H164.53l-2.6-33.89Z" transform="translate(-50 -240.26)"/><path class="cls-2" d="M279.45,399.59v20.87H237.72v20.93H269v20.86h-31.3v41.8H216.79V399.59Z" transform="translate(-50 -240.26)"/><path class="cls-2" d="M377.94,415a52.16,52.16,0,1,1-73.77,73.77A52.16,52.16,0,1,1,377.94,415Zm-59,14.75a31.12,31.12,0,1,0,22.13-9.24A30.28,30.28,0,0,0,318.94,429.7Z" transform="translate(-50 -240.26)"/><path class="cls-2" d="M488.49,415a52,52,0,1,1-36.87-15.36A50.28,50.28,0,0,1,488.49,415Zm-59,14.75a31.12,31.12,0,1,0,22.13-9.24A30.29,30.29,0,0,0,429.49,429.7Z" transform="translate(-50 -240.26)"/><path class="cls-2" d="M571.64,415a52.22,52.22,0,0,1-36.87,89.1H513.84V399.59h20.93A50.28,50.28,0,0,1,571.64,415Zm-14.77,59a31.37,31.37,0,0,0-22.1-53.49v62.66A30.21,30.21,0,0,0,556.87,474Z" transform="translate(-50 -240.26)"/></svg>